<mxfile host="app.diagrams.net" modified="2024-07-04T11:17:05.374Z" agent="Mozilla/5.0 (Macintosh; Intel Mac OS X 10_15_7) AppleWebKit/537.36 (KHTML, like Gecko) Chrome/126.0.0.0 Safari/537.36" version="24.6.4" etag="eI1o4jZDbo1nlrp7bN2Y" type="github">
  <diagram name="Page-1" id="GY7dOZdtTLier7ZtZXGg">
    <mxGraphModel>
      <root>
        <mxCell id="0" />
        <mxCell id="1" parent="0" />
      </root>
    </mxGraphModel>
  </diagram>
</mxfile>
